<svg width="16" height="16" viewBox="0 0 16 16" fill="none" xmlns="http://www.w3.org/2000/svg">
<path d="M3.00217 5.32602L8.00017 10.198L12.9982 5.32602C13.0875 5.2388 13.2073 5.18996 13.3322 5.18996C13.457 5.18996 13.5769 5.2388 13.6662 5.32602C13.7094 5.36838 13.7438 5.41895 13.7672 5.47475C13.7907 5.53056 13.8027 5.59048 13.8027 5.65102C13.8027 5.71155 13.7907 5.77147 13.7672 5.82728C13.7438 5.88309 13.7094 5.93365 13.6662 5.97602L8.34917 11.16C8.25579 11.251 8.13056 11.302 8.00017 11.302C7.86978 11.302 7.74454 11.251 7.65117 11.16L2.33417 5.97702C2.29062 5.93462 2.25601 5.88393 2.23238 5.82794C2.20875 5.77195 2.19658 5.71179 2.19658 5.65102C2.19658 5.59024 2.20875 5.53009 2.23238 5.47409C2.25601 5.4181 2.29062 5.36741 2.33417 5.32502C2.42347 5.2378 2.54334 5.18896 2.66817 5.18896C2.793 5.18896 2.91287 5.2378 3.00217 5.32502V5.32602Z" fill="#181818"/>
</svg>
