<svg width="17" height="16" viewBox="0 0 17 16" fill="none" xmlns="http://www.w3.org/2000/svg">
<path fill-rule="evenodd" clip-rule="evenodd" d="M11.8333 4.6665C11.8333 4.13607 11.6226 3.62736 11.2475 3.25229C10.8725 2.87722 10.3638 2.6665 9.83333 2.6665H7.16667C6.63623 2.6665 6.12753 2.87722 5.75245 3.25229C5.37738 3.62736 5.16667 4.13607 5.16667 4.6665H4.5C3.96957 4.6665 3.46086 4.87722 3.08579 5.25229C2.71071 5.62736 2.5 6.13607 2.5 6.6665V11.9998C2.5 12.5303 2.71071 13.039 3.08579 13.4141C3.46086 13.7891 3.96957 13.9998 4.5 13.9998H12.5C13.0304 13.9998 13.5391 13.7891 13.9142 13.4141C14.2893 13.039 14.5 12.5303 14.5 11.9998V6.6665C14.5 6.13607 14.2893 5.62736 13.9142 5.25229C13.5391 4.87722 13.0304 4.6665 12.5 4.6665H11.8333ZM9.83333 3.99984H7.16667C6.98986 3.99984 6.82029 4.07008 6.69526 4.1951C6.57024 4.32012 6.5 4.48969 6.5 4.6665H10.5C10.5 4.48969 10.4298 4.32012 10.3047 4.1951C10.1797 4.07008 10.0101 3.99984 9.83333 3.99984ZM4.5 5.99984H12.5C12.6768 5.99984 12.8464 6.07008 12.9714 6.1951C13.0964 6.32012 13.1667 6.48969 13.1667 6.6665V11.9998C13.1667 12.1766 13.0964 12.3462 12.9714 12.4712C12.8464 12.5963 12.6768 12.6665 12.5 12.6665H4.5C4.32319 12.6665 4.15362 12.5963 4.0286 12.4712C3.90357 12.3462 3.83333 12.1766 3.83333 11.9998V6.6665C3.83333 6.48969 3.90357 6.32012 4.0286 6.1951C4.15362 6.07008 4.32319 5.99984 4.5 5.99984Z" fill="#707070"/>
</svg>
