<svg width="17" height="16" viewBox="0 0 17 16" fill="none" xmlns="http://www.w3.org/2000/svg">
<path d="M5.20003 2.66669C5.29727 2.66669 5.39054 2.70181 5.4593 2.76432C5.52806 2.82683 5.5667 2.91161 5.5667 3.00002V3.33335H11.4334V3.00002C11.4334 2.91161 11.472 2.82683 11.5408 2.76432C11.6095 2.70181 11.7028 2.66669 11.8 2.66669C11.8973 2.66669 11.9905 2.70181 12.0593 2.76432C12.1281 2.82683 12.1667 2.91161 12.1667 3.00002V3.33335H12.9C13.289 3.33335 13.6621 3.47383 13.9371 3.72388C14.2122 3.97393 14.3667 4.31306 14.3667 4.66669V12C14.3667 12.3536 14.2122 12.6928 13.9371 12.9428C13.6621 13.1929 13.289 13.3334 12.9 13.3334H4.10003C3.71104 13.3334 3.33799 13.1929 3.06294 12.9428C2.78789 12.6928 2.63336 12.3536 2.63336 12V4.66669C2.63336 4.31306 2.78789 3.97393 3.06294 3.72388C3.33799 3.47383 3.71104 3.33335 4.10003 3.33335H4.83336V3.00002C4.83336 2.91161 4.87199 2.82683 4.94076 2.76432C5.00952 2.70181 5.10278 2.66669 5.20003 2.66669V2.66669ZM3.3667 5.33335V12C3.3667 12.1768 3.44396 12.3464 3.58148 12.4714C3.71901 12.5964 3.90554 12.6667 4.10003 12.6667H12.9C13.0945 12.6667 13.281 12.5964 13.4186 12.4714C13.5561 12.3464 13.6334 12.1768 13.6334 12V5.33335H3.3667Z" fill="#707070"/>
</svg>
