<svg width="25" height="25" viewBox="0 0 25 25" fill="none" xmlns="http://www.w3.org/2000/svg">
<path d="M16.25 9.375C16.25 9.20924 16.3158 9.05027 16.4331 8.93306C16.5503 8.81585 16.7092 8.75 16.875 8.75H19.375C19.5408 8.75 19.6997 8.81585 19.8169 8.93306C19.9342 9.05027 20 9.20924 20 9.375V10.625C20 10.7908 19.9342 10.9497 19.8169 11.0669C19.6997 11.1842 19.5408 11.25 19.375 11.25H16.875C16.7092 11.25 16.5503 11.1842 16.4331 11.0669C16.3158 10.9497 16.25 10.7908 16.25 10.625V9.375Z" fill="#181818"/>
<path d="M5 5C4.33696 5 3.70107 5.26339 3.23223 5.73223C2.76339 6.20107 2.5 6.83696 2.5 7.5L2.5 17.5C2.5 18.163 2.76339 18.7989 3.23223 19.2678C3.70107 19.7366 4.33696 20 5 20H20C20.663 20 21.2989 19.7366 21.7678 19.2678C22.2366 18.7989 22.5 18.163 22.5 17.5V7.5C22.5 6.83696 22.2366 6.20107 21.7678 5.73223C21.2989 5.26339 20.663 5 20 5H5ZM21.25 7.5V13.75H3.75V7.5C3.75 7.16848 3.8817 6.85054 4.11612 6.61612C4.35054 6.3817 4.66848 6.25 5 6.25H20C20.3315 6.25 20.6495 6.3817 20.8839 6.61612C21.1183 6.85054 21.25 7.16848 21.25 7.5ZM20 18.75H5C4.66848 18.75 4.35054 18.6183 4.11612 18.3839C3.8817 18.1495 3.75 17.8315 3.75 17.5V16.25H21.25V17.5C21.25 17.8315 21.1183 18.1495 20.8839 18.3839C20.6495 18.6183 20.3315 18.75 20 18.75Z" fill="#181818"/>
</svg>
