<svg width="20" height="21" viewBox="0 0 20 21" fill="none" xmlns="http://www.w3.org/2000/svg">
<path d="M15.7814 5.39626C16.1149 4.99153 16.0618 4.39039 15.6604 4.05411C15.2591 3.71783 14.6629 3.77139 14.3295 4.17612L10.3337 9.01204L6.33786 4.17612C6.00438 3.77139 5.40826 3.71783 5.00691 4.05411C4.60556 4.39039 4.55244 4.99153 4.88591 5.39626L9.10305 10.5L4.88591 15.6038C4.55244 16.0085 4.60556 16.6096 5.00691 16.9459C5.40826 17.2822 6.00438 17.2286 6.33786 16.8239L10.3337 11.988L14.3295 16.8239C14.6629 17.2286 15.2591 17.2822 15.6604 16.9459C16.0618 16.6096 16.1149 16.0085 15.7814 15.6038L11.5643 10.5L15.7814 5.39626Z" fill="#181818"/>
</svg>
