<svg width="30" height="30" viewBox="0 0 30 30" fill="none" xmlns="http://www.w3.org/2000/svg">
<path d="M12.1464 16.6289C12.3417 16.8242 12.6583 16.8242 12.8535 16.6289L17.1464 12.3361C17.3417 12.1408 17.6583 12.1408 17.8535 12.3361L24.2802 18.7627C24.4755 18.958 24.792 18.958 24.9873 18.7627L26.6464 17.1036C26.9614 16.7886 27.5 17.0117 27.5 17.4571V23.25C27.5 23.5261 27.2761 23.75 27 23.75H21.2071C20.7616 23.75 20.5386 23.2114 20.8535 22.8964L22.5127 21.2373C22.7079 21.042 22.7079 20.7255 22.5127 20.5302L17.8535 15.8711C17.6583 15.6758 17.3417 15.6758 17.1464 15.8711L12.8535 20.1639C12.6583 20.3592 12.3417 20.3592 12.1464 20.1639L3.21979 11.2373C3.02453 11.042 3.02453 10.7255 3.21979 10.5302L4.28019 9.4698C4.47545 9.27454 4.79203 9.27454 4.98729 9.4698L12.1464 16.6289Z" fill="#FF0000"/>
</svg>
