<svg width="16" height="16" viewBox="0 0 16 16" fill="none" xmlns="http://www.w3.org/2000/svg">
<path fill-rule="evenodd" clip-rule="evenodd" d="M3.71153 0.21001C3.42972 0.0932822 3.12768 0.0332031 2.82266 0.0332031C2.51763 0.0332031 2.21559 0.0932822 1.93379 0.21001C1.65198 0.326738 1.39593 0.497829 1.18024 0.713515C0.964555 0.9292 0.793464 1.18526 0.676736 1.46706C0.560007 1.74887 0.499928 2.05091 0.499929 2.35593C0.499929 2.66095 0.560007 2.96299 0.676736 3.2448C0.793464 3.52661 0.964554 3.78266 1.18024 3.99835L5.84226 8.66037C6.19696 9.01507 6.64778 9.25605 7.13891 9.3543C7.13895 9.35431 7.13887 9.35429 7.13891 9.3543L9.29449 9.78574C9.56137 9.83915 9.83728 9.75566 10.0298 9.56325C10.2223 9.37083 10.3058 9.09495 10.2525 8.82806L9.82176 6.67179C9.7232 6.18062 9.48149 5.7296 9.1271 5.37554L4.46508 0.713515C4.24939 0.497831 3.99334 0.326739 3.71153 0.21001ZM2.82266 1.66129C2.91388 1.66129 3.00421 1.67926 3.08849 1.71416C3.17276 1.74907 3.24934 1.80024 3.31385 1.86474L4.0516 2.6025L3.06899 3.58464L2.33147 2.84712C2.26697 2.78262 2.2158 2.70604 2.18089 2.62176C2.14598 2.53748 2.12801 2.44716 2.12801 2.35593C2.12801 2.26471 2.14598 2.17438 2.18089 2.0901C2.2158 2.00582 2.26697 1.92925 2.33147 1.86474C2.39597 1.80024 2.47255 1.74907 2.55683 1.71416C2.64111 1.67926 2.73144 1.66129 2.82266 1.66129ZM4.22022 4.73587L5.20283 3.75373L7.97587 6.52677C8.10295 6.65367 8.19004 6.81574 8.22544 6.99181C8.22545 6.99191 8.22542 6.99171 8.22544 6.99181L8.4168 7.94969L7.45843 7.75788C7.28209 7.72261 7.12068 7.63633 6.99349 7.50914L4.22022 4.73587Z" fill="#181818"/>
<path fill-rule="evenodd" clip-rule="evenodd" d="M13.5244 3.28922C13.7403 3.28922 13.9474 3.37498 14.1 3.52765C14.2527 3.68031 14.3385 3.88736 14.3385 4.10326V13.0577C14.3385 13.2736 14.2527 13.4807 14.1 13.6333C13.9474 13.786 13.7403 13.8718 13.5244 13.8718H4.56996C4.35406 13.8718 4.14701 13.786 3.99434 13.6333C3.84168 13.4807 3.75591 13.2736 3.75591 13.0577V10.6156C3.75591 10.166 3.39145 9.80156 2.94187 9.80156C2.49229 9.80156 2.12783 10.166 2.12783 10.6156V13.0577C2.12783 13.7054 2.38513 14.3266 2.84311 14.7846C3.3011 15.2426 3.92226 15.4999 4.56996 15.4999H13.5244C14.1721 15.4999 14.7933 15.2426 15.2513 14.7846C15.7093 14.3266 15.9666 13.7054 15.9666 13.0577V4.10326C15.9666 3.45557 15.7093 2.8344 15.2513 2.37642C14.7933 1.91843 14.1721 1.66113 13.5244 1.66113H11.0823C10.6327 1.66113 10.2683 2.02559 10.2683 2.47518C10.2683 2.92476 10.6327 3.28922 11.0823 3.28922H13.5244Z" fill="#181818"/>
</svg>
