<svg width="16" height="17" viewBox="0 0 16 17" fill="none" xmlns="http://www.w3.org/2000/svg">
<path fill-rule="evenodd" clip-rule="evenodd" d="M15.29 3.71177C15.4067 3.42997 15.4668 3.12793 15.4668 2.8229C15.4668 2.51788 15.4067 2.21584 15.29 1.93403C15.1733 1.65223 15.0022 1.39617 14.7865 1.18048C14.5708 0.964799 14.3147 0.793708 14.0329 0.67698C13.7511 0.560251 13.4491 0.500173 13.1441 0.500174C12.839 0.500174 12.537 0.560251 12.2552 0.67698C11.9734 0.793708 11.7173 0.964798 11.5017 1.18048L6.83963 5.84251C6.48493 6.1972 6.24395 6.64802 6.1457 7.13915C6.14569 7.13919 6.14571 7.13911 6.1457 7.13915L5.71426 9.29474C5.66085 9.56161 5.74434 9.83752 5.93675 10.03C6.12917 10.2225 6.40505 10.3061 6.67194 10.2528L8.82821 9.822C9.31938 9.72344 9.7704 9.48174 10.1245 9.12734L14.7865 4.46532C15.0022 4.24964 15.1733 3.99358 15.29 3.71177ZM13.8387 2.8229C13.8387 2.91412 13.8207 3.00445 13.7858 3.08873C13.7509 3.17301 13.6998 3.24958 13.6353 3.31409L12.8975 4.05184L11.9154 3.06924L12.6529 2.33171C12.7174 2.26721 12.794 2.21604 12.8782 2.18113C12.9625 2.14623 13.0528 2.12826 13.1441 2.12826C13.2353 2.12826 13.3256 2.14623 13.4099 2.18113C13.4942 2.21604 13.5708 2.26721 13.6353 2.33171C13.6998 2.39622 13.7509 2.47279 13.7858 2.55707C13.8207 2.64135 13.8387 2.73168 13.8387 2.8229ZM10.7641 4.22047L11.7463 5.20307L8.97323 7.97611C8.84633 8.10319 8.68426 8.19029 8.50819 8.22568C8.50809 8.2257 8.50829 8.22566 8.50819 8.22568L7.55031 8.41704L7.74212 7.45868C7.77739 7.28234 7.86367 7.12093 7.99086 6.99374L10.7641 4.22047Z" fill="#09B4E9"/>
<path fill-rule="evenodd" clip-rule="evenodd" d="M12.2108 13.5247C12.2108 13.7406 12.125 13.9476 11.9724 14.1003C11.8197 14.2529 11.6126 14.3387 11.3967 14.3387L2.44227 14.3387C2.22637 14.3387 2.01932 14.2529 1.86666 14.1003C1.71399 13.9476 1.62823 13.7406 1.62823 13.5247L1.62823 4.5702C1.62823 4.3543 1.71399 4.14725 1.86666 3.99459C2.01932 3.84192 2.22637 3.75616 2.44227 3.75616H4.8844C5.33398 3.75616 5.69844 3.3917 5.69844 2.94212C5.69844 2.49253 5.33398 2.12807 4.8844 2.12807H2.44227C1.79458 2.12807 1.17341 2.38537 0.715426 2.84336C0.257439 3.30134 0.000143051 3.92251 0.000143051 4.5702L0.000143051 13.5247C0.000143051 14.1724 0.257438 14.7935 0.715426 15.2515C1.17341 15.7095 1.79458 15.9668 2.44227 15.9668L11.3967 15.9668C12.0444 15.9668 12.6656 15.7095 13.1236 15.2515C13.5816 14.7935 13.8389 14.1724 13.8389 13.5247L13.8389 11.0825C13.8389 10.633 13.4744 10.2685 13.0248 10.2685C12.5752 10.2685 12.2108 10.633 12.2108 11.0825V13.5247Z" fill="#09B4E9"/>
</svg>
