<svg width="25" height="25" viewBox="0 0 25 25" fill="none" xmlns="http://www.w3.org/2000/svg">
<g clip-path="url(#clip0_1608_76674)">
<path d="M17.1474 0.502477C17.2011 0.494623 17.2557 0.50248 17.3047 0.524797L17.3292 0.539019C17.3843 0.570935 17.4269 0.620577 17.4501 0.679833L17.9157 0.497604L17.4501 0.679835C17.4733 0.739092 17.4757 0.804462 17.4569 0.865267L17.4568 0.86563L14.6427 10.0094L14.4436 10.6565H15.1206H20.3128H20.313C20.3679 10.6564 20.4217 10.6725 20.4676 10.7027L20.7422 10.2848L20.4676 10.7027C20.5135 10.7328 20.5496 10.7758 20.5713 10.8262C20.5931 10.8766 20.5996 10.9323 20.5901 10.9864C20.5806 11.0405 20.5554 11.0907 20.5178 11.1306L20.5175 11.131L8.01746 24.4122L8.01732 24.4124C7.97378 24.4587 7.91584 24.4888 7.85294 24.498C7.79005 24.5072 7.72591 24.4947 7.67098 24.4628C7.61604 24.4308 7.57355 24.3812 7.55044 24.322C7.52733 24.2628 7.52495 24.1975 7.5437 24.1367L7.54382 24.1363L10.3579 14.991L10.557 14.344H9.88H4.68781H4.68761C4.63268 14.344 4.57895 14.3279 4.53304 14.2977C4.48713 14.2676 4.45107 14.2246 4.42929 14.1742C4.40752 14.1238 4.40099 14.0681 4.41051 14.014C4.42003 13.9599 4.44518 13.9097 4.48286 13.8698L4.48316 13.8694L16.9832 0.588197L16.9833 0.588074C17.0268 0.541836 17.0846 0.511668 17.1474 0.502477ZM6.13156 12.9387L5.33824 13.7815H6.49562H10.9378H10.9379C10.9819 13.7814 11.0253 13.7918 11.0646 13.8116C11.1039 13.8314 11.138 13.8602 11.1642 13.8956C11.1903 13.931 11.2078 13.972 11.2152 14.0154C11.2226 14.0588 11.2197 14.1032 11.2068 14.1453C11.2068 14.1453 11.2068 14.1453 11.2068 14.1454L9.06933 21.0874L9.91128 21.5773L18.8675 12.0616L19.6607 11.219H18.5034H14.0628H14.0627C14.0187 11.219 13.9753 11.2086 13.936 11.1888L13.7108 11.6352L13.936 11.1888C13.8967 11.169 13.8626 11.1402 13.8364 11.1048C13.8103 11.0694 13.7928 11.0284 13.7854 10.985C13.778 10.9416 13.7809 10.8971 13.7938 10.855L15.9313 3.91296L15.0894 3.42311L6.13156 12.9387Z" fill="#181818" stroke="#181818"/>
</g>
<defs>
<clipPath id="clip0_1608_76674">
<rect width="25" height="25" fill="white"/>
</clipPath>
</defs>
</svg>
