<svg width="25" height="25" viewBox="0 0 25 25" fill="none" xmlns="http://www.w3.org/2000/svg">
<path d="M7.82875 4.17447C8.37928 4.44973 8.57439 5.13843 8.25006 5.66154L6.26577 8.862C5.87212 9.49693 5.86514 10.2983 6.24768 10.94L8.25763 14.3115C8.62633 14.93 8.63413 15.6989 8.27807 16.3247L5.91075 20.4854C5.63369 20.9724 5.02414 21.1576 4.52304 20.907C3.9875 20.6393 3.78223 19.9798 4.07118 19.4554L5.80075 16.3165C6.14352 15.6945 6.13066 14.9373 5.76696 14.3272L3.75129 10.9461C3.36685 10.3012 3.37593 9.49537 3.7748 8.85934L6.47451 4.55439C6.76076 4.09794 7.34685 3.93352 7.82875 4.17447ZM14.2947 4.07412C14.8427 4.34812 15.0397 5.03183 14.7215 5.55537L12.7211 8.84632C12.3298 9.48997 12.3334 10.2989 12.7303 10.939L14.6863 14.0938C15.0723 14.7164 15.087 15.5001 14.7248 16.1367L12.3691 20.2771C12.092 20.7641 11.4825 20.9492 10.9814 20.6987C10.4458 20.4309 10.2406 19.7714 10.5295 19.247L12.2479 16.1286C12.5966 15.4956 12.5768 14.7237 12.196 14.1095L10.235 10.9466C9.83564 10.3024 9.83465 9.48796 10.2324 8.84289L12.9344 4.46128C13.2192 3.99947 13.8095 3.83148 14.2947 4.07412ZM20.8572 4.07412C21.4052 4.34812 21.6022 5.03183 21.284 5.55537L19.2836 8.84632C18.8923 9.48997 18.8959 10.2989 19.2928 10.939L21.2488 14.0938C21.6348 14.7164 21.6495 15.5001 21.2873 16.1367L18.9316 20.2771C18.6545 20.7641 18.045 20.9492 17.5439 20.6987C17.0083 20.4309 16.8031 19.7714 17.092 19.247L18.8104 16.1286C19.1591 15.4956 19.1393 14.7237 18.7585 14.1095L16.7975 10.9466C16.3981 10.3024 16.3972 9.48796 16.7949 8.84289L19.4969 4.46128C19.7817 3.99947 20.372 3.83148 20.8572 4.07412Z" fill="#313131"/>
</svg>
