<svg width="30" height="30" viewBox="0 0 30 30" fill="none" xmlns="http://www.w3.org/2000/svg">
<path fill-rule="evenodd" clip-rule="evenodd" d="M0.445585 10.2933C0.967378 9.84223 1.73912 9.92009 2.16931 10.4672C3.40112 12.0338 4.8516 13.3962 6.47162 14.5083C6.48047 14.5142 6.48926 14.5203 6.49799 14.5264C8.20761 15.6948 10.1141 16.5102 12.1151 16.9289C12.1471 16.9338 12.1792 16.9401 12.2112 16.9477C12.2165 16.949 12.2218 16.9503 12.2271 16.9516C14.0596 17.3135 15.9404 17.3135 17.7729 16.9516C17.7782 16.9503 17.7835 16.949 17.7888 16.9477C17.8208 16.9401 17.8529 16.9338 17.8849 16.9289C19.8859 16.5102 21.7923 15.6948 23.502 14.5264C23.5107 14.5203 23.5195 14.5142 23.5284 14.5083C25.1484 13.3962 26.5989 12.0338 27.8307 10.4672C28.2609 9.92009 29.0326 9.84223 29.5544 10.2933C30.0762 10.7444 30.1505 11.5536 29.7203 12.1007C28.6173 13.5035 27.3588 14.761 25.9725 15.8473L27.4234 17.6881C27.8542 18.2347 27.7809 19.044 27.2596 19.4957C26.7383 19.9474 25.9665 19.8705 25.5357 19.3239L23.916 17.269C22.5365 18.0954 21.0612 18.7318 19.5268 19.1625L20.0203 21.4301C20.1708 22.1215 19.7583 22.8098 19.099 22.9675C18.4396 23.1253 17.7832 22.6928 17.6327 22.0015L17.122 19.6549C15.7126 19.8361 14.2874 19.8361 12.878 19.6549L12.3673 22.0015C12.2168 22.6928 11.5604 23.1253 10.901 22.9675C10.2417 22.8098 9.82922 22.1215 9.97968 21.4301L10.4732 19.1625C8.93884 18.7318 7.46355 18.0954 6.08399 17.269L4.4643 19.3239C4.03349 19.8705 3.26166 19.9474 2.74038 19.4957C2.2191 19.044 2.14576 18.2347 2.57657 17.6881L4.02746 15.8473C2.6412 14.761 1.38271 13.5035 0.279732 12.1007C-0.150463 11.5536 -0.0762076 10.7444 0.445585 10.2933Z" fill="black"/>
</svg>
