<svg width="21" height="20" viewBox="0 0 21 20" fill="none" xmlns="http://www.w3.org/2000/svg">
<path fill-rule="evenodd" clip-rule="evenodd" d="M6.125 14.375C6.125 14.2092 6.19085 14.0503 6.30806 13.9331C6.42527 13.8158 6.58424 13.75 6.75 13.75L19.25 13.75C19.4158 13.75 19.5747 13.8158 19.6919 13.9331C19.8092 14.0503 19.875 14.2092 19.875 14.375C19.875 14.5408 19.8092 14.6997 19.6919 14.8169C19.5747 14.9342 19.4158 15 19.25 15L6.75 15C6.58424 15 6.42527 14.9342 6.30806 14.8169C6.19085 14.6997 6.125 14.5408 6.125 14.375ZM3.625 9.375C3.625 9.20924 3.69085 9.05027 3.80806 8.93306C3.92527 8.81585 4.08424 8.75 4.25 8.75H16.75C16.9158 8.75 17.0747 8.81585 17.1919 8.93306C17.3092 9.05027 17.375 9.20924 17.375 9.375C17.375 9.54076 17.3092 9.69973 17.1919 9.81694C17.0747 9.93415 16.9158 10 16.75 10H4.25C4.08424 10 3.92527 9.93415 3.80806 9.81694C3.69085 9.69973 3.625 9.54076 3.625 9.375ZM1.125 4.375C1.125 4.20924 1.19085 4.05027 1.30806 3.93306C1.42527 3.81585 1.58424 3.75 1.75 3.75L14.25 3.75C14.4158 3.75 14.5747 3.81585 14.6919 3.93306C14.8092 4.05027 14.875 4.20924 14.875 4.375C14.875 4.54076 14.8092 4.69973 14.6919 4.81694C14.5747 4.93415 14.4158 5 14.25 5L1.75 5C1.58424 5 1.42527 4.93415 1.30806 4.81694C1.19085 4.69973 1.125 4.54076 1.125 4.375Z" fill="white"/>
</svg>
