<svg width="40" height="40" viewBox="0 0 40 40" fill="none" xmlns="http://www.w3.org/2000/svg">
<path fill-rule="evenodd" clip-rule="evenodd" d="M11.25 28.75C11.25 28.4185 11.3817 28.1005 11.6161 27.8661C11.8505 27.6317 12.1685 27.5 12.5 27.5H37.5C37.8315 27.5 38.1495 27.6317 38.3839 27.8661C38.6183 28.1005 38.75 28.4185 38.75 28.75C38.75 29.0815 38.6183 29.3995 38.3839 29.6339C38.1495 29.8683 37.8315 30 37.5 30H12.5C12.1685 30 11.8505 29.8683 11.6161 29.6339C11.3817 29.3995 11.25 29.0815 11.25 28.75ZM6.25 18.75C6.25 18.4185 6.3817 18.1005 6.61612 17.8661C6.85054 17.6317 7.16848 17.5 7.5 17.5H32.5C32.8315 17.5 33.1495 17.6317 33.3839 17.8661C33.6183 18.1005 33.75 18.4185 33.75 18.75C33.75 19.0815 33.6183 19.3995 33.3839 19.6339C33.1495 19.8683 32.8315 20 32.5 20H7.5C7.16848 20 6.85054 19.8683 6.61612 19.6339C6.3817 19.3995 6.25 19.0815 6.25 18.75ZM1.25 8.75C1.25 8.41848 1.3817 8.10054 1.61612 7.86612C1.85054 7.6317 2.16848 7.5 2.5 7.5H27.5C27.8315 7.5 28.1495 7.6317 28.3839 7.86612C28.6183 8.10054 28.75 8.41848 28.75 8.75C28.75 9.08152 28.6183 9.39946 28.3839 9.63388C28.1495 9.8683 27.8315 10 27.5 10H2.5C2.16848 10 1.85054 9.8683 1.61612 9.63388C1.3817 9.39946 1.25 9.08152 1.25 8.75Z" fill="#2C3B7E"/>
</svg>
