<svg width="17" height="16" viewBox="0 0 17 16" fill="none" xmlns="http://www.w3.org/2000/svg">
<path fill-rule="evenodd" clip-rule="evenodd" d="M5 11.5C5 11.3674 5.05268 11.2402 5.14645 11.1464C5.24021 11.0527 5.36739 11 5.5 11H15.5C15.6326 11 15.7598 11.0527 15.8536 11.1464C15.9473 11.2402 16 11.3674 16 11.5C16 11.6326 15.9473 11.7598 15.8536 11.8536C15.7598 11.9473 15.6326 12 15.5 12H5.5C5.36739 12 5.24021 11.9473 5.14645 11.8536C5.05268 11.7598 5 11.6326 5 11.5ZM3 7.5C3 7.36739 3.05268 7.24021 3.14645 7.14645C3.24021 7.05268 3.36739 7 3.5 7H13.5C13.6326 7 13.7598 7.05268 13.8536 7.14645C13.9473 7.24021 14 7.36739 14 7.5C14 7.63261 13.9473 7.75979 13.8536 7.85355C13.7598 7.94732 13.6326 8 13.5 8H3.5C3.36739 8 3.24021 7.94732 3.14645 7.85355C3.05268 7.75979 3 7.63261 3 7.5ZM1 3.5C1 3.36739 1.05268 3.24021 1.14645 3.14645C1.24021 3.05268 1.36739 3 1.5 3H11.5C11.6326 3 11.7598 3.05268 11.8536 3.14645C11.9473 3.24021 12 3.36739 12 3.5C12 3.63261 11.9473 3.75979 11.8536 3.85355C11.7598 3.94732 11.6326 4 11.5 4H1.5C1.36739 4 1.24021 3.94732 1.14645 3.85355C1.05268 3.75979 1 3.63261 1 3.5Z" fill="#707070"/>
</svg>
