<svg width="16" height="16" viewBox="0 0 16 16" fill="none" xmlns="http://www.w3.org/2000/svg">
<path d="M7.99992 9.33333C9.47059 9.33333 10.6666 8.13733 10.6666 6.66667C10.6666 5.196 9.47059 4 7.99992 4C6.52925 4 5.33325 5.196 5.33325 6.66667C5.33325 8.13733 6.52925 9.33333 7.99992 9.33333ZM7.99992 5.33333C8.73525 5.33333 9.33325 5.93133 9.33325 6.66667C9.33325 7.402 8.73525 8 7.99992 8C7.26459 8 6.66659 7.402 6.66659 6.66667C6.66659 5.93133 7.26459 5.33333 7.99992 5.33333Z" fill="#707070"/>
<path d="M7.61323 14.5426C7.72606 14.6232 7.86125 14.6665 7.9999 14.6665C8.13854 14.6665 8.27373 14.6232 8.38656 14.5426C8.58923 14.3993 13.3526 10.96 13.3332 6.66665C13.3332 3.72598 10.9406 1.33331 7.9999 1.33331C5.05923 1.33331 2.66656 3.72598 2.66656 6.66331C2.64723 10.96 7.41056 14.3993 7.61323 14.5426ZM7.9999 2.66665C10.2059 2.66665 11.9999 4.46065 11.9999 6.66998C12.0139 9.62865 9.07456 12.2853 7.9999 13.1566C6.9259 12.2846 3.9859 9.62731 3.9999 6.66665C3.9999 4.46065 5.7939 2.66665 7.9999 2.66665Z" fill="#707070"/>
</svg>
