<svg width="17" height="16" viewBox="0 0 17 16" fill="none" xmlns="http://www.w3.org/2000/svg">
<path d="M8.50004 9.33333C9.97071 9.33333 11.1667 8.13733 11.1667 6.66667C11.1667 5.196 9.97071 4 8.50004 4C7.02937 4 5.83337 5.196 5.83337 6.66667C5.83337 8.13733 7.02937 9.33333 8.50004 9.33333ZM8.50004 5.33333C9.23537 5.33333 9.83337 5.93133 9.83337 6.66667C9.83337 7.402 9.23537 8 8.50004 8C7.76471 8 7.16671 7.402 7.16671 6.66667C7.16671 5.93133 7.76471 5.33333 8.50004 5.33333Z" fill="#707070"/>
<path d="M8.11335 14.5426C8.22618 14.6232 8.36137 14.6665 8.50002 14.6665C8.63867 14.6665 8.77385 14.6232 8.88668 14.5426C9.08935 14.3993 13.8527 10.96 13.8334 6.66665C13.8334 3.72598 11.4407 1.33331 8.50002 1.33331C5.55935 1.33331 3.16668 3.72598 3.16668 6.66331C3.14735 10.96 7.91068 14.3993 8.11335 14.5426ZM8.50002 2.66665C10.706 2.66665 12.5 4.46065 12.5 6.66998C12.514 9.62865 9.57468 12.2853 8.50002 13.1566C7.42602 12.2846 4.48602 9.62731 4.50002 6.66665C4.50002 4.46065 6.29402 2.66665 8.50002 2.66665Z" fill="#707070"/>
</svg>
