<svg width="16" height="16" viewBox="0 0 16 16" fill="none" xmlns="http://www.w3.org/2000/svg">
<path d="M8.4801 7.19998C8.1601 7.11998 7.8401 6.95997 7.6001 6.71997C7.3601 6.63998 7.2801 6.39998 7.2801 6.23998C7.2801 6.07998 7.3601 5.83998 7.5201 5.75997C7.7601 5.59998 8.0001 5.43998 8.2401 5.51998C8.7201 5.51998 9.1201 5.75997 9.3601 6.07998L10.0801 5.11998C9.8401 4.87998 9.6001 4.71998 9.3601 4.55998C9.1201 4.39998 8.8001 4.31998 8.4801 4.31998V3.19998H7.5201V4.31998C7.1201 4.39998 6.7201 4.63998 6.4001 4.95998C6.0801 5.35998 5.8401 5.83998 5.9201 6.31998C5.9201 6.79998 6.0801 7.27998 6.4001 7.59998C6.8001 7.99998 7.3601 8.23998 7.8401 8.47998C8.0801 8.55998 8.4001 8.71998 8.6401 8.87998C8.8001 9.03998 8.8801 9.27997 8.8801 9.51997C8.8801 9.75997 8.8001 9.99998 8.6401 10.24C8.4001 10.48 8.0801 10.56 7.8401 10.56C7.5201 10.56 7.1201 10.48 6.8801 10.24C6.6401 10.08 6.4001 9.83998 6.2401 9.59998L5.4401 10.48C5.6801 10.8 5.9201 11.04 6.2401 11.28C6.6401 11.52 7.1201 11.76 7.6001 11.76V12.8H8.4801V11.6C8.9601 11.52 9.3601 11.28 9.6801 10.96C10.0801 10.56 10.3201 9.91997 10.3201 9.35997C10.3201 8.87997 10.1601 8.31998 9.7601 7.99998C9.3601 7.59998 8.9601 7.35998 8.4801 7.19998ZM8.0001 1.59998C4.4801 1.59998 1.6001 4.47998 1.6001 7.99998C1.6001 11.52 4.4801 14.4 8.0001 14.4C11.5201 14.4 14.4001 11.52 14.4001 7.99998C14.4001 4.47998 11.5201 1.59998 8.0001 1.59998ZM8.0001 13.52C4.9601 13.52 2.4801 11.04 2.4801 7.99998C2.4801 4.95998 4.9601 2.47998 8.0001 2.47998C11.0401 2.47998 13.5201 4.95998 13.5201 7.99998C13.5201 11.04 11.0401 13.52 8.0001 13.52Z" fill="#707070"/>
</svg>
