<svg width="25" height="25" viewBox="0 0 25 25" fill="none" xmlns="http://www.w3.org/2000/svg">
<path d="M13.25 11.25C12.75 11.125 12.25 10.875 11.875 10.5C11.5 10.375 11.375 10 11.375 9.75C11.375 9.5 11.5 9.125 11.75 9C12.125 8.75 12.5 8.5 12.875 8.625C13.625 8.625 14.25 9 14.625 9.5L15.75 8C15.375 7.625 15 7.375 14.625 7.125C14.25 6.875 13.75 6.75 13.25 6.75V5H11.75V6.75C11.125 6.875 10.5 7.25 10 7.75C9.5 8.375 9.125 9.125 9.25 9.875C9.25 10.625 9.5 11.375 10 11.875C10.625 12.5 11.5 12.875 12.25 13.25C12.625 13.375 13.125 13.625 13.5 13.875C13.75 14.125 13.875 14.5 13.875 14.875C13.875 15.25 13.75 15.625 13.5 16C13.125 16.375 12.625 16.5 12.25 16.5C11.75 16.5 11.125 16.375 10.75 16C10.375 15.75 10 15.375 9.75 15L8.5 16.375C8.875 16.875 9.25 17.25 9.75 17.625C10.375 18 11.125 18.375 11.875 18.375V20H13.25V18.125C14 18 14.625 17.625 15.125 17.125C15.75 16.5 16.125 15.5 16.125 14.625C16.125 13.875 15.875 13 15.25 12.5C14.625 11.875 14 11.5 13.25 11.25ZM12.5 2.5C7 2.5 2.5 7 2.5 12.5C2.5 18 7 22.5 12.5 22.5C18 22.5 22.5 18 22.5 12.5C22.5 7 18 2.5 12.5 2.5ZM12.5 21.125C7.75 21.125 3.875 17.25 3.875 12.5C3.875 7.75 7.75 3.875 12.5 3.875C17.25 3.875 21.125 7.75 21.125 12.5C21.125 17.25 17.25 21.125 12.5 21.125Z" fill="#181818"/>
</svg>
