<svg width="16" height="16" viewBox="0 0 16 16" fill="none" xmlns="http://www.w3.org/2000/svg">
<path d="M12.6667 14V3.33333C12.6667 2.97971 12.5262 2.64057 12.2761 2.39052C12.0261 2.14048 11.687 2 11.3333 2H4.66667C4.31304 2 3.97391 2.14048 3.72386 2.39052C3.47381 2.64057 3.33333 2.97971 3.33333 3.33333V14M12.6667 14H14H12.6667ZM12.6667 14H9.33333H12.6667ZM3.33333 14H2H3.33333ZM3.33333 14H6.66667H3.33333ZM6 4.66667H6.66667H6ZM6 7.33333H6.66667H6ZM9.33333 4.66667H10H9.33333ZM9.33333 7.33333H10H9.33333ZM6.66667 14V10.6667C6.66667 10.4899 6.7369 10.3203 6.86193 10.1953C6.98695 10.0702 7.15652 10 7.33333 10H8.66667C8.84348 10 9.01305 10.0702 9.13807 10.1953C9.2631 10.3203 9.33333 10.4899 9.33333 10.6667V14M6.66667 14H9.33333H6.66667Z" fill="white"/>
<path d="M12.6667 14V3.33333C12.6667 2.97971 12.5262 2.64057 12.2761 2.39052C12.0261 2.14048 11.687 2 11.3333 2H4.66667C4.31304 2 3.97391 2.14048 3.72386 2.39052C3.47381 2.64057 3.33333 2.97971 3.33333 3.33333V14M12.6667 14H14M12.6667 14H9.33333M3.33333 14H2M3.33333 14H6.66667M6 4.66667H6.66667M6 7.33333H6.66667M9.33333 4.66667H10M9.33333 7.33333H10M6.66667 14V10.6667C6.66667 10.4899 6.7369 10.3203 6.86193 10.1953C6.98695 10.0702 7.15652 10 7.33333 10H8.66667C8.84348 10 9.01305 10.0702 9.13807 10.1953C9.2631 10.3203 9.33333 10.4899 9.33333 10.6667V14M6.66667 14H9.33333" stroke="#707070" stroke-linecap="round" stroke-linejoin="round"/>
</svg>
