<svg width="25" height="25" viewBox="0 0 25 25" fill="none" xmlns="http://www.w3.org/2000/svg">
<path d="M18.75 10.4583C18.75 11.0106 18.3023 11.4583 17.75 11.4583H7.25C6.69772 11.4583 6.25 11.0106 6.25 10.4583V10.375C6.25 9.82272 6.69772 9.375 7.25 9.375H17.75C18.3023 9.375 18.75 9.82272 18.75 10.375V10.4583Z" fill="#313131"/>
<path fill-rule="evenodd" clip-rule="evenodd" d="M2.08301 16.6663C2.08301 17.4951 2.41225 18.29 2.9983 18.876C3.58435 19.4621 4.37921 19.7913 5.20801 19.7913H19.7913C20.6201 19.7913 21.415 19.4621 22.001 18.876C22.5871 18.29 22.9163 17.4951 22.9163 16.6663V8.33301C22.9163 7.50421 22.5871 6.70935 22.001 6.1233C21.415 5.53725 20.6201 5.20801 19.7913 5.20801H5.20801C4.37921 5.20801 3.58435 5.53725 2.9983 6.1233C2.41225 6.70935 2.08301 7.50421 2.08301 8.33301V16.6663ZM5.20801 17.708H19.7913C20.0676 17.708 20.3326 17.5983 20.5279 17.4029C20.7233 17.2076 20.833 16.9426 20.833 16.6663V8.33301C20.833 8.05674 20.7233 7.79179 20.5279 7.59644C20.3326 7.40109 20.0676 7.29134 19.7913 7.29134H5.20801C4.93174 7.29134 4.66679 7.40109 4.47144 7.59644C4.27609 7.79179 4.16634 8.05674 4.16634 8.33301V16.6663C4.16634 16.9426 4.27609 17.2076 4.47144 17.4029C4.66679 17.5983 4.93174 17.708 5.20801 17.708Z" fill="#313131"/>
</svg>
