<svg width="25" height="25" viewBox="0 0 25 25" fill="none" xmlns="http://www.w3.org/2000/svg">
<path d="M8.21401 6.78571C8.02457 6.78571 7.84289 6.86097 7.70893 6.99492C7.57498 7.12888 7.49972 7.31056 7.49972 7.5C7.49972 7.68944 7.57498 7.87112 7.70893 8.00508C7.84289 8.13903 8.02457 8.21429 8.21401 8.21429V6.78571ZM11.0711 8.21429C11.2606 8.21429 11.4423 8.13903 11.5762 8.00508C11.7102 7.87112 11.7854 7.68944 11.7854 7.5C11.7854 7.31056 11.7102 7.12888 11.5762 6.99492C11.4423 6.86097 11.2606 6.78571 11.0711 6.78571V8.21429ZM8.21401 11.7857C8.02457 11.7857 7.84289 11.861 7.70893 11.9949C7.57498 12.1289 7.49972 12.3106 7.49972 12.5C7.49972 12.6894 7.57498 12.8711 7.70893 13.0051C7.84289 13.139 8.02457 13.2143 8.21401 13.2143V11.7857ZM16.7854 13.2143C16.9749 13.2143 17.1566 13.139 17.2905 13.0051C17.4245 12.8711 17.4997 12.6894 17.4997 12.5C17.4997 12.3106 17.4245 12.1289 17.2905 11.9949C17.1566 11.861 16.9749 11.7857 16.7854 11.7857V13.2143ZM8.21401 14.6429C8.02457 14.6429 7.84289 14.7181 7.70893 14.8521C7.57498 14.986 7.49972 15.1677 7.49972 15.3571C7.49972 15.5466 7.57498 15.7283 7.70893 15.8622C7.84289 15.9962 8.02457 16.0714 8.21401 16.0714V14.6429ZM16.7854 16.0714C16.9749 16.0714 17.1566 15.9962 17.2905 15.8622C17.4245 15.7283 17.4997 15.5466 17.4997 15.3571C17.4997 15.1677 17.4245 14.986 17.2905 14.8521C17.1566 14.7181 16.9749 14.6429 16.7854 14.6429V16.0714ZM8.21401 17.5C8.02457 17.5 7.84289 17.5753 7.70893 17.7092C7.57498 17.8432 7.49972 18.0248 7.49972 18.2143C7.49972 18.4037 7.57498 18.5854 7.70893 18.7194C7.84289 18.8533 8.02457 18.9286 8.21401 18.9286V17.5ZM11.0711 18.9286C11.2606 18.9286 11.4423 18.8533 11.5762 18.7194C11.7102 18.5854 11.7854 18.4037 11.7854 18.2143C11.7854 18.0248 11.7102 17.8432 11.5762 17.7092C11.4423 17.5753 11.2606 17.5 11.0711 17.5V18.9286ZM6.78544 3.92857H18.214V2.5H6.78544V3.92857ZM18.9283 4.64286V20.3571H20.3569V4.64286H18.9283ZM18.214 21.0714H6.78544V22.5H18.214V21.0714ZM6.07115 20.3571V4.64286H4.64258V20.3571H6.07115ZM6.78544 21.0714C6.59599 21.0714 6.41431 20.9962 6.28036 20.8622C6.1464 20.7283 6.07115 20.5466 6.07115 20.3571H4.64258C4.64258 20.9255 4.86834 21.4705 5.27021 21.8724C5.67207 22.2742 6.21711 22.5 6.78544 22.5V21.0714ZM18.9283 20.3571C18.9283 20.5466 18.853 20.7283 18.7191 20.8622C18.5851 20.9962 18.4034 21.0714 18.214 21.0714V22.5C18.7823 22.5 19.3274 22.2742 19.7292 21.8724C20.1311 21.4705 20.3569 20.9255 20.3569 20.3571H18.9283ZM18.214 3.92857C18.4034 3.92857 18.5851 4.00383 18.7191 4.13778C18.853 4.27174 18.9283 4.45342 18.9283 4.64286H20.3569C20.3569 4.07454 20.1311 3.52949 19.7292 3.12763C19.3274 2.72576 18.7823 2.5 18.214 2.5V3.92857ZM6.78544 2.5C6.21711 2.5 5.67207 2.72576 5.27021 3.12763C4.86834 3.52949 4.64258 4.07454 4.64258 4.64286H6.07115C6.07115 4.45342 6.1464 4.27174 6.28036 4.13778C6.41431 4.00383 6.59599 3.92857 6.78544 3.92857V2.5ZM8.21401 8.21429H11.0711V6.78571H8.21401V8.21429ZM8.21401 13.2143H16.7854V11.7857H8.21401V13.2143ZM8.21401 16.0714H16.7854V14.6429H8.21401V16.0714ZM8.21401 18.9286H11.0711V17.5H8.21401V18.9286Z" fill="#181818"/>
<path d="M16.7859 7.85686C16.9831 7.85686 17.143 7.69697 17.143 7.49972C17.143 7.30248 16.9831 7.14258 16.7859 7.14258C16.5886 7.14258 16.4287 7.30248 16.4287 7.49972C16.4287 7.69697 16.5886 7.85686 16.7859 7.85686Z" fill="#181818" stroke="#181818"/>
</svg>
