<svg width="17" height="16" viewBox="0 0 17 16" fill="none" xmlns="http://www.w3.org/2000/svg">
<path fill-rule="evenodd" clip-rule="evenodd" d="M11.9175 2.68697C11.8993 2.66864 11.8776 2.6541 11.8537 2.64418C11.8298 2.63426 11.8042 2.62916 11.7784 2.62917C11.7235 2.62917 11.6754 2.64871 11.6355 2.68862L9.84322 4.4809C9.82489 4.49914 9.81035 4.52083 9.80043 4.54471C9.79052 4.56859 9.78541 4.5942 9.78542 4.62006C9.78542 4.67497 9.80496 4.72303 9.84487 4.76294L11.6765 6.59461L11.3714 7.26726C11.012 8.05934 10.5125 8.77996 9.8969 9.39441C9.28287 10.0111 8.56273 10.5122 7.77099 10.8735L7.09742 11.1809L5.26285 9.34634C5.24461 9.32802 5.22292 9.31348 5.19904 9.30356C5.17516 9.29364 5.14955 9.28854 5.1237 9.28854C5.06878 9.28854 5.02072 9.30809 4.98081 9.348L3.1872 11.1385C3.16878 11.1568 3.15417 11.1786 3.14421 11.2027C3.13425 11.2267 3.12914 11.2524 3.12917 11.2784L3.12917 11.2797C3.12917 11.3346 3.14871 11.3824 3.18862 11.4223L4.8511 13.0848C5.03067 13.2651 5.28461 13.3708 5.54375 13.3708C5.59827 13.3708 5.64645 13.3664 5.69224 13.3585L5.69695 13.3577L5.70167 13.3569C7.56234 13.0505 9.45459 12.0495 11.0024 10.5032C12.5472 8.95981 13.5474 7.06942 13.8586 5.20086C13.9081 4.89817 13.8079 4.57808 13.5819 4.34977C13.5815 4.34938 13.5811 4.34899 13.5807 4.3486L11.9175 2.68697ZM14.9109 5.375C14.5594 7.4875 13.4406 9.575 11.7563 11.2578C10.0703 12.9422 7.98125 14.0625 5.875 14.4094C5.76719 14.4281 5.65781 14.4375 5.54375 14.4375C5.00313 14.4375 4.47656 14.2203 4.09531 13.8375L2.43438 12.1766C2.19531 11.9375 2.0625 11.6188 2.0625 11.2797C2.06231 11.1131 2.09506 10.948 2.15888 10.7941C2.2227 10.6402 2.31633 10.5004 2.43438 10.3828L4.22656 8.59375C4.46563 8.35469 4.78438 8.22188 5.12344 8.22188C5.28981 8.22184 5.45455 8.25467 5.6082 8.31849C5.76184 8.3823 5.90137 8.47585 6.01875 8.59375L7.32813 9.90313C8.0038 9.59477 8.61832 9.16709 9.14219 8.64063C9.66738 8.1167 10.0935 7.50213 10.4 6.82656L9.09063 5.51719C8.85156 5.27813 8.71875 4.95938 8.71875 4.62031C8.71871 4.45394 8.75154 4.2892 8.81536 4.13555C8.87918 3.98191 8.97273 3.84238 9.09063 3.725L10.8813 1.93438C11.1203 1.69531 11.4391 1.5625 11.7781 1.5625C11.9445 1.56246 12.1092 1.59529 12.2629 1.65911C12.4165 1.72293 12.5561 1.81647 12.6734 1.93438L14.3375 3.59688C14.8031 4.06563 15.0172 4.72969 14.9109 5.375Z" fill="#707070"/>
</svg>
