<svg width="25" height="25" viewBox="0 0 25 25" fill="none" xmlns="http://www.w3.org/2000/svg">
<path d="M18.9967 6.16719C17.7051 3.97878 15.8714 2.16007 13.6725 0.886426L13.2813 0.660156L12.89 0.886426C10.6537 2.17706 8.7967 4.03392 7.50591 6.27019C6.21513 8.50646 5.53609 11.0432 5.53711 13.6253C5.53711 13.7935 5.54004 13.9644 5.54575 14.1331C5.62349 16.421 6.49844 18.3461 8.07603 19.7004C9.28325 20.7368 10.8318 21.3694 12.5002 21.5204V24.2189H14.0627V11.7189H12.5V19.9479C9.86016 19.642 7.23276 17.7772 7.10723 14.08C7.10205 13.9289 7.09941 13.7759 7.09941 13.6253C7.10406 11.3958 7.67346 9.20378 8.75446 7.25386C9.83547 5.30393 11.3928 3.65965 13.2813 2.47446C15.1696 3.65968 16.727 5.30397 17.8079 7.25389C18.8889 9.20381 19.4583 11.3958 19.4629 13.6253C19.4629 13.7759 19.4603 13.9289 19.4551 14.08C19.3547 17.0377 17.653 18.8226 15.6248 19.5749V21.2286C16.6773 20.9303 17.6532 20.4091 18.4865 19.7003C20.0641 18.346 20.939 16.4209 21.0167 14.1331C21.0225 13.9643 21.0254 13.7935 21.0254 13.6252C21.0268 11.0027 20.3263 8.42764 18.9967 6.16719Z" fill="#181818"/>
</svg>
