<svg width="32" height="32" viewBox="0 0 32 32" fill="none" xmlns="http://www.w3.org/2000/svg">
<path d="M30.2858 14.5714H17.4286V1.71428C17.4286 1.3354 17.2781 0.972034 17.0102 0.704124C16.7423 0.436215 16.3789 0.285706 16.0001 0.285706C15.6212 0.285706 15.2578 0.436215 14.9899 0.704124C14.722 0.972034 14.5715 1.3354 14.5715 1.71428V14.5714H1.71434C1.33546 14.5714 0.972095 14.7219 0.704185 14.9898C0.436276 15.2577 0.285767 15.6211 0.285767 16C0.285767 16.3789 0.436276 16.7422 0.704185 17.0101C0.972095 17.2781 1.33546 17.4286 1.71434 17.4286H14.5715V30.2857C14.5715 30.6646 14.722 31.028 14.9899 31.2959C15.2578 31.5638 15.6212 31.7143 16.0001 31.7143C16.3789 31.7143 16.7423 31.5638 17.0102 31.2959C17.2781 31.028 17.4286 30.6646 17.4286 30.2857V17.4286H30.2858C30.6646 17.4286 31.028 17.2781 31.2959 17.0101C31.5638 16.7422 31.7143 16.3789 31.7143 16C31.7143 15.6211 31.5638 15.2577 31.2959 14.9898C31.028 14.7219 30.6646 14.5714 30.2858 14.5714Z" fill="#2C3B7E"/>
</svg>
