<svg width="17" height="16" viewBox="0 0 17 16" fill="none" xmlns="http://www.w3.org/2000/svg">
<path d="M7.78568 0.856932V7.2855H1.35711C1.16767 7.2855 0.985986 7.36076 0.852032 7.49471C0.718077 7.62867 0.642822 7.81035 0.642822 7.99979C0.642822 8.18923 0.718077 8.37091 0.852032 8.50487C0.985986 8.63882 1.16767 8.71408 1.35711 8.71408H7.78568V15.1426C7.78568 15.3321 7.86094 15.5138 7.99489 15.6477C8.12884 15.7817 8.31053 15.8569 8.49997 15.8569C8.68941 15.8569 8.87109 15.7817 9.00504 15.6477C9.139 15.5138 9.21425 15.3321 9.21425 15.1426V8.71408H15.6428C15.8323 8.71408 16.0139 8.63882 16.1479 8.50487C16.2819 8.37091 16.3571 8.18923 16.3571 7.99979C16.3571 7.81035 16.2819 7.62867 16.1479 7.49471C16.0139 7.36076 15.8323 7.2855 15.6428 7.2855H9.21425V0.856932C9.21425 0.667492 9.139 0.485809 9.00504 0.351855C8.87109 0.2179 8.68941 0.142646 8.49997 0.142646C8.31053 0.142646 8.12884 0.2179 7.99489 0.351855C7.86094 0.485809 7.78568 0.667492 7.78568 0.856932Z" fill="white"/>
</svg>
