<svg width="16" height="17" viewBox="0 0 16 17" fill="none" xmlns="http://www.w3.org/2000/svg">
<path d="M7.99992 9.83333C9.47059 9.83333 10.6666 8.63733 10.6666 7.16667C10.6666 5.696 9.47059 4.5 7.99992 4.5C6.52925 4.5 5.33325 5.696 5.33325 7.16667C5.33325 8.63733 6.52925 9.83333 7.99992 9.83333ZM7.99992 5.83333C8.73525 5.83333 9.33325 6.43133 9.33325 7.16667C9.33325 7.902 8.73525 8.5 7.99992 8.5C7.26459 8.5 6.66659 7.902 6.66659 7.16667C6.66659 6.43133 7.26459 5.83333 7.99992 5.83333Z" fill="#707070"/>
<path d="M7.61323 15.0426C7.72606 15.1232 7.86125 15.1665 7.9999 15.1665C8.13855 15.1665 8.27373 15.1232 8.38656 15.0426C8.58923 14.8993 13.3526 11.46 13.3332 7.16665C13.3332 4.22598 10.9406 1.83331 7.9999 1.83331C5.05923 1.83331 2.66656 4.22598 2.66656 7.16331C2.64723 11.46 7.41056 14.8993 7.61323 15.0426ZM7.9999 3.16665C10.2059 3.16665 11.9999 4.96065 11.9999 7.16998C12.0139 10.1286 9.07456 12.7853 7.9999 13.6566C6.9259 12.7846 3.9859 10.1273 3.9999 7.16665C3.9999 4.96065 5.7939 3.16665 7.9999 3.16665Z" fill="#707070"/>
</svg>
