<svg width="25" height="25" viewBox="0 0 25 25" fill="none" xmlns="http://www.w3.org/2000/svg">
<path fill-rule="evenodd" clip-rule="evenodd" d="M19.7917 4.79167H15.625C15.3996 4.79167 15.2083 4.98298 15.2083 5.20833L15.2083 19.7917C15.2083 20.017 15.3996 20.2083 15.625 20.2083H19.7917C20.017 20.2083 20.2083 20.017 20.2083 19.7917L20.2083 5.20833C20.2083 4.98298 20.017 4.79167 19.7917 4.79167ZM9.375 4.79167L5.20833 4.79167C4.98298 4.79167 4.79167 4.98298 4.79167 5.20833L4.79167 10.4167C4.79167 10.642 4.98298 10.8333 5.20833 10.8333H9.375C9.60036 10.8333 9.79167 10.642 9.79167 10.4167V5.20833C9.79167 4.98298 9.60036 4.79167 9.375 4.79167ZM4.79167 16.6667V19.7917C4.79167 20.017 4.98298 20.2083 5.20833 20.2083L9.375 20.2083C9.60036 20.2083 9.79167 20.017 9.79167 19.7917V16.6667C9.79167 16.4413 9.60036 16.25 9.375 16.25H5.20833C4.98298 16.25 4.79167 16.4413 4.79167 16.6667ZM19.7917 3.125H15.625C14.4792 3.125 13.5417 4.0625 13.5417 5.20833L13.5417 19.7917C13.5417 20.9375 14.4792 21.875 15.625 21.875H19.7917C20.9375 21.875 21.875 20.9375 21.875 19.7917L21.875 5.20833C21.875 4.0625 20.9375 3.125 19.7917 3.125ZM5.20833 3.125L9.375 3.125C10.5208 3.125 11.4583 4.0625 11.4583 5.20833V10.4167C11.4583 11.5625 10.5208 12.5 9.375 12.5H5.20833C4.0625 12.5 3.125 11.5625 3.125 10.4167L3.125 5.20833C3.125 4.0625 4.0625 3.125 5.20833 3.125ZM3.125 19.7917V16.6667C3.125 15.5208 4.0625 14.5833 5.20833 14.5833H9.375C10.5208 14.5833 11.4583 15.5208 11.4583 16.6667V19.7917C11.4583 20.9375 10.5208 21.875 9.375 21.875L5.20833 21.875C4.0625 21.875 3.125 20.9375 3.125 19.7917Z" fill="#181818"/>
</svg>
