<svg width="17" height="16" viewBox="0 0 17 16" fill="none" xmlns="http://www.w3.org/2000/svg">
<path d="M13.1667 1.33331H6.50002C5.76469 1.33331 5.16669 1.93131 5.16669 2.66665V6.39065L2.02869 9.52865C1.93548 9.62188 1.87201 9.74066 1.8463 9.86996C1.82059 9.99926 1.83379 10.1333 1.88424 10.2551C1.93468 10.3769 2.02011 10.481 2.12972 10.5542C2.23932 10.6275 2.36819 10.6666 2.50002 10.6666V14C2.50002 14.1768 2.57026 14.3464 2.69528 14.4714C2.82031 14.5964 2.98988 14.6666 3.16669 14.6666H13.8334C14.0102 14.6666 14.1797 14.5964 14.3048 14.4714C14.4298 14.3464 14.5 14.1768 14.5 14V2.66665C14.5 1.93131 13.902 1.33331 13.1667 1.33331ZM7.83335 13.3333H3.83335V9.60931L5.83335 7.60931L7.83335 9.60931V13.3333ZM13.1667 13.3333H9.16669V10.6666C9.29866 10.6669 9.42775 10.628 9.53757 10.5548C9.64738 10.4816 9.73297 10.3774 9.78347 10.2555C9.83397 10.1336 9.84711 9.99938 9.82121 9.86997C9.79532 9.74056 9.73155 9.62176 9.63802 9.52865L6.50002 6.39065V2.66665H13.1667V13.3333Z" fill="#707070"/>
<path d="M7.83341 4H9.16675V5.33333H7.83341V4ZM10.5001 4H11.8334V5.33333H10.5001V4ZM10.5001 6.68733H11.8334V8H10.5001V6.68733ZM10.5001 9.33333H11.8334V10.6667H10.5001V9.33333ZM5.16675 10H6.50008V11.3333H5.16675V10Z" fill="#707070"/>
</svg>
