<svg width="30" height="30" viewBox="0 0 30 30" fill="none" xmlns="http://www.w3.org/2000/svg">
<g clip-path="url(#clip0_202_4540)">
<path fill-rule="evenodd" clip-rule="evenodd" d="M7.58674 9.06755C5.38294 10.7797 3.62369 12.8424 2.5795 14.2055L2.57476 14.2117L2.57474 14.2117C2.39959 14.4372 2.30452 14.7145 2.30452 15C2.30452 15.2855 2.39959 15.5629 2.57474 15.7883L2.57952 15.7945L2.5795 15.7945C3.62369 17.1576 5.38294 19.2203 7.58674 20.9325C9.80353 22.6548 12.3526 23.9316 15 23.9316C17.6474 23.9316 20.1965 22.6548 22.4133 20.9325C24.617 19.2204 26.3762 17.1578 27.4204 15.7947C27.7863 15.3169 27.7871 14.6853 27.4201 14.205C26.3759 12.8419 24.6168 10.7795 22.4133 9.06755C20.1965 7.34526 17.6474 6.06847 15 6.06847C12.3526 6.06847 9.80353 7.34526 7.58674 9.06755ZM28.3354 13.5047L29.2503 12.8039C28.1437 11.3593 26.2475 9.12764 23.8274 7.24741C21.4203 5.37727 18.3771 3.76355 15 3.76355C11.623 3.76355 8.57972 5.37727 6.17262 7.24741C3.75412 9.12641 1.85881 11.3564 0.751917 12.801C0.264274 13.4303 -0.000396729 14.2038 -0.000396729 15C-0.000396729 15.7962 0.264288 16.5698 0.751954 17.199C1.85885 18.6437 3.75415 20.8737 6.17262 22.7526C8.57972 24.6228 11.623 26.2365 15 26.2365C18.3771 26.2365 21.4203 24.6228 23.8274 22.7526C26.2475 20.8724 28.1437 18.6407 29.2503 17.1962L29.2504 17.196C30.2501 15.8905 30.2494 14.1108 29.251 12.8048L28.3354 13.5047Z" fill="black"/>
<path fill-rule="evenodd" clip-rule="evenodd" d="M15 11.8308C13.2497 11.8308 11.8308 13.2497 11.8308 15.0001C11.8308 16.7504 13.2497 18.1693 15 18.1693C16.7504 18.1693 18.1693 16.7504 18.1693 15.0001C18.1693 13.2497 16.7504 11.8308 15 11.8308ZM9.52585 15.0001C9.52585 11.9768 11.9767 9.52588 15 9.52588C18.0233 9.52588 20.4742 11.9768 20.4742 15.0001C20.4742 18.0234 18.0233 20.4742 15 20.4742C11.9767 20.4742 9.52585 18.0234 9.52585 15.0001Z" fill="black"/>
</g>
<defs>
<clipPath id="clip0_202_4540">
<rect width="30" height="30" fill="white"/>
</clipPath>
</defs>
</svg>
