<svg width="25" height="25" viewBox="0 0 25 25" fill="none" xmlns="http://www.w3.org/2000/svg">
<path fill-rule="evenodd" clip-rule="evenodd" d="M3.00098 5.07259C3.00098 4.59563 3.38763 4.20898 3.86458 4.20898H21.1367C21.6137 4.20898 22.0003 4.59563 22.0003 5.07259C22.0003 5.54955 21.6137 5.9362 21.1367 5.9362H3.86458C3.38763 5.9362 3.00098 5.54955 3.00098 5.07259Z" fill="#181818"/>
<path fill-rule="evenodd" clip-rule="evenodd" d="M3.00098 11.9827C3.00098 11.5058 3.38763 11.1191 3.86458 11.1191H8.61442C9.09138 11.1191 9.47802 11.5058 9.47802 11.9827C9.47802 12.4597 9.09138 12.8464 8.61442 12.8464H3.86458C3.38763 12.8464 3.00098 12.4597 3.00098 11.9827Z" fill="#181818"/>
<path fill-rule="evenodd" clip-rule="evenodd" d="M3.00098 18.889C3.00098 18.412 3.38763 18.0254 3.86458 18.0254H8.61442C9.09138 18.0254 9.47802 18.412 9.47802 18.889C9.47802 19.366 9.09138 19.7526 8.61442 19.7526H3.86458C3.38763 19.7526 3.00098 19.366 3.00098 18.889Z" fill="#181818"/>
<path fill-rule="evenodd" clip-rule="evenodd" d="M12.533 9.8553C13.3833 9.00502 14.5365 8.52734 15.739 8.52734C16.9415 8.52734 18.0947 9.00502 18.945 9.8553C19.7953 10.7056 20.2729 11.8588 20.2729 13.0613C20.2729 14.2638 19.7953 15.417 18.945 16.2673C18.0947 17.1175 16.9415 17.5952 15.739 17.5952C14.5365 17.5952 13.3833 17.1175 12.533 16.2673C11.6828 15.417 11.2051 14.2638 11.2051 13.0613C11.2051 11.8588 11.6828 10.7056 12.533 9.8553ZM15.739 10.2546C14.9946 10.2546 14.2807 10.5503 13.7544 11.0766C13.228 11.603 12.9323 12.3169 12.9323 13.0613C12.9323 13.8057 13.228 14.5196 13.7544 15.0459C14.2807 15.5723 14.9946 15.868 15.739 15.868C16.4834 15.868 17.1973 15.5723 17.7237 15.0459C18.25 14.5196 18.5457 13.8057 18.5457 13.0613C18.5457 12.3169 18.25 11.603 17.7237 11.0766C17.1973 10.5503 16.4834 10.2546 15.739 10.2546Z" fill="#181818"/>
<path fill-rule="evenodd" clip-rule="evenodd" d="M17.5051 15.2547C17.8436 14.9186 18.3904 14.9206 18.7264 15.259L21.7491 18.3032C22.0851 18.6417 22.0832 19.1885 21.7447 19.5246C21.4063 19.8606 20.8595 19.8587 20.5234 19.5202L17.5008 16.476C17.1647 16.1375 17.1667 15.5907 17.5051 15.2547Z" fill="#181818"/>
</svg>
