<svg width="25" height="25" viewBox="0 0 25 25" fill="none" xmlns="http://www.w3.org/2000/svg">
<path d="M10.0632 11.2021C10.2585 11.0069 10.5751 11.0069 10.7703 11.2021L14.2299 14.6617C14.4252 14.8569 14.7418 14.8569 14.937 14.6617L20.1747 9.424C20.37 9.22873 20.6865 9.22873 20.8818 9.424L22.0632 10.6054C22.3782 10.9204 22.9168 10.6973 22.9168 10.2519V5.70898C22.9168 5.43284 22.6929 5.20898 22.4168 5.20898H17.8739C17.4285 5.20898 17.2054 5.74756 17.5203 6.06254L18.7018 7.24397C18.897 7.43924 18.897 7.75582 18.7018 7.95108L14.937 11.7158C14.7418 11.9111 14.4252 11.9111 14.2299 11.7158L10.7703 8.25629C10.5751 8.06102 10.2585 8.06103 10.0632 8.25629L2.74223 15.5773C2.54696 15.7726 2.54696 16.0892 2.74223 16.2844L3.50804 17.0502C3.7033 17.2455 4.01988 17.2455 4.21514 17.0502L10.0632 11.2021Z" fill="#181818"/>
</svg>
