<svg width="30" height="30" viewBox="0 0 30 30" fill="none" xmlns="http://www.w3.org/2000/svg">
<path d="M12.1464 13.3711C12.3417 13.1758 12.6583 13.1758 12.8535 13.3711L17.1464 17.6639C17.3417 17.8592 17.6583 17.8592 17.8535 17.6639L24.2802 11.2373C24.4755 11.042 24.792 11.042 24.9873 11.2373L26.6464 12.8964C26.9614 13.2114 27.5 12.9883 27.5 12.5429V6.75C27.5 6.47386 27.2761 6.25 27 6.25H21.2071C20.7616 6.25 20.5386 6.78857 20.8535 7.10355L22.5127 8.7627C22.7079 8.95796 22.7079 9.27454 22.5127 9.4698L17.8535 14.1289C17.6583 14.3242 17.3417 14.3242 17.1464 14.1289L12.8535 9.83605C12.6583 9.64079 12.3417 9.64079 12.1464 9.83605L3.21979 18.7627C3.02453 18.958 3.02453 19.2745 3.21979 19.4698L4.28019 20.5302C4.47545 20.7255 4.79203 20.7255 4.98729 20.5302L12.1464 13.3711Z" fill="#00AC47"/>
</svg>
