<svg width="16" height="17" viewBox="0 0 16 17" fill="none" xmlns="http://www.w3.org/2000/svg">
<path d="M7.99998 8.72066C7.33646 8.72066 6.68784 8.52652 6.13614 8.16277C5.58443 7.79903 5.15444 7.28202 4.90052 6.67713C4.6466 6.07225 4.58016 5.40665 4.70961 4.7645C4.83905 4.12236 5.15857 3.53251 5.62775 3.06955C6.09694 2.60659 6.69471 2.29131 7.34549 2.16358C7.99626 2.03585 8.67081 2.10141 9.28382 2.35196C9.89684 2.60251 10.4208 3.02681 10.7894 3.57119C11.1581 4.11558 11.3548 4.7556 11.3548 5.41032C11.3548 6.28828 11.0014 7.13028 10.3722 7.75109C9.74306 8.3719 8.88974 8.72066 7.99998 8.72066ZM7.99998 3.42411C7.60187 3.42411 7.21269 3.5406 6.88167 3.75885C6.55065 3.9771 6.29266 4.2873 6.1403 4.65023C5.98795 5.01316 5.94809 5.41252 6.02576 5.79781C6.10343 6.1831 6.29514 6.537 6.57665 6.81478C6.85816 7.09256 7.21682 7.28172 7.60729 7.35836C7.99775 7.435 8.40248 7.39567 8.77029 7.24534C9.1381 7.09501 9.45247 6.84043 9.67365 6.5138C9.89483 6.18717 10.0129 5.80316 10.0129 5.41032C10.0129 4.88355 9.80081 4.37835 9.42332 4.00586C9.04583 3.63338 8.53384 3.42411 7.99998 3.42411ZM14.2623 14.9C14.0851 14.8977 13.9158 14.8272 13.7905 14.7035C13.6651 14.5799 13.5937 14.4128 13.5914 14.2379C13.5914 12.5165 12.6431 11.3689 7.99998 11.3689C3.35689 11.3689 2.40859 12.5165 2.40859 14.2379C2.40859 14.4135 2.33789 14.5819 2.21206 14.7061C2.08623 14.8302 1.91557 14.9 1.73762 14.9C1.55967 14.9 1.389 14.8302 1.26317 14.7061C1.13734 14.5819 1.06665 14.4135 1.06665 14.2379C1.06665 10.0448 5.92446 10.0448 7.99998 10.0448C10.0755 10.0448 14.9333 10.0448 14.9333 14.2379C14.931 14.4128 14.8596 14.5799 14.7342 14.7035C14.6089 14.8272 14.4396 14.8977 14.2623 14.9Z" fill="#707070"/>
</svg>
