<svg width="17" height="16" viewBox="0 0 17 16" fill="none" xmlns="http://www.w3.org/2000/svg">
<g clip-path="url(#clip0_1469_53656)">
<path d="M8.49998 8.22066C7.83646 8.22066 7.18784 8.02652 6.63614 7.66277C6.08443 7.29903 5.65444 6.78202 5.40052 6.17713C5.1466 5.57225 5.08016 4.90665 5.20961 4.2645C5.33905 3.62236 5.65857 3.03251 6.12775 2.56955C6.59694 2.10659 7.19471 1.79131 7.84549 1.66358C8.49626 1.53585 9.17081 1.60141 9.78382 1.85196C10.3968 2.10251 10.9208 2.52681 11.2894 3.07119C11.6581 3.61558 11.8548 4.2556 11.8548 4.91032C11.8548 5.78828 11.5014 6.63028 10.8722 7.25109C10.2431 7.8719 9.38974 8.22066 8.49998 8.22066ZM8.49998 2.92411C8.10187 2.92411 7.71269 3.0406 7.38167 3.25885C7.05065 3.4771 6.79266 3.7873 6.6403 4.15023C6.48795 4.51316 6.44809 4.91252 6.52576 5.29781C6.60343 5.6831 6.79514 6.037 7.07665 6.31478C7.35816 6.59256 7.71682 6.78172 8.10729 6.85836C8.49775 6.935 8.90248 6.89567 9.27029 6.74534C9.6381 6.59501 9.95247 6.34043 10.1737 6.0138C10.3948 5.68717 10.5129 5.30316 10.5129 4.91032C10.5129 4.38355 10.3008 3.87835 9.92332 3.50586C9.54583 3.13338 9.03384 2.92411 8.49998 2.92411ZM14.7623 14.4C14.5851 14.3977 14.4158 14.3272 14.2905 14.2035C14.1651 14.0799 14.0937 13.9128 14.0914 13.7379C14.0914 12.0165 13.1431 10.8689 8.49998 10.8689C3.85689 10.8689 2.90859 12.0165 2.90859 13.7379C2.90859 13.9135 2.83789 14.0819 2.71206 14.2061C2.58623 14.3302 2.41557 14.4 2.23762 14.4C2.05967 14.4 1.889 14.3302 1.76317 14.2061C1.63734 14.0819 1.56665 13.9135 1.56665 13.7379C1.56665 9.5448 6.42446 9.5448 8.49998 9.5448C10.5755 9.5448 15.4333 9.5448 15.4333 13.7379C15.431 13.9128 15.3596 14.0799 15.2342 14.2035C15.1089 14.3272 14.9396 14.3977 14.7623 14.4Z" fill="#707070"/>
<circle cx="12.7667" cy="12.2667" r="3.73333" fill="white"/>
<path d="M12.5593 10.1685C12.631 9.97941 12.9022 9.97941 12.9741 10.1685L13.4378 11.4529C13.4539 11.4947 13.4824 11.5306 13.5195 11.556C13.5565 11.5813 13.6003 11.5948 13.6452 11.5946H14.7846C14.9952 11.5946 15.087 11.8567 14.9215 11.9851L14.1106 12.7146C14.0743 12.7426 14.0478 12.7813 14.0348 12.8252C14.0219 12.8692 14.0232 12.9161 14.0385 12.9592L14.3346 14.2143C14.4068 14.4159 14.1734 14.589 13.9969 14.4649L12.8955 13.7661C12.8578 13.7396 12.8128 13.7253 12.7667 13.7253C12.7206 13.7253 12.6756 13.7396 12.6379 13.7661L11.5365 14.4649C11.3603 14.589 11.1266 14.4157 11.1988 14.2143L11.4949 12.9592C11.5102 12.9161 11.5115 12.8692 11.4986 12.8252C11.4856 12.7813 11.4591 12.7426 11.4228 12.7146L10.6119 11.9851C10.4462 11.8567 10.5384 11.5946 10.7485 11.5946H11.888C11.9328 11.5948 11.9767 11.5813 12.0137 11.556C12.0508 11.5307 12.0793 11.4947 12.0954 11.4529L12.5591 10.1685H12.5593Z" stroke="#707070" stroke-linecap="round" stroke-linejoin="round"/>
</g>
<defs>
<clipPath id="clip0_1469_53656">
<rect width="16" height="16" fill="white" transform="translate(0.5)"/>
</clipPath>
</defs>
</svg>
