<svg width="60" height="60" viewBox="0 0 60 60" fill="none" xmlns="http://www.w3.org/2000/svg">
<path fill-rule="evenodd" clip-rule="evenodd" d="M29.9999 19.2604C31.3686 19.2604 32.4783 20.37 32.4783 21.7388V35.5076C32.4783 36.8764 31.3686 37.986 29.9999 37.986C28.6311 37.986 27.5215 36.8764 27.5215 35.5076V21.7388C27.5215 20.37 28.6311 19.2604 29.9999 19.2604ZM29.9999 42.6674C31.3686 42.6674 32.4783 43.7771 32.4783 45.1458V46.5227C32.4783 47.8915 31.3686 49.0011 29.9999 49.0011C28.6311 49.0011 27.5215 47.8915 27.5215 46.5227V45.1458C27.5215 43.7771 28.6311 42.6674 29.9999 42.6674Z" fill="#FFD300"/>
<path fill-rule="evenodd" clip-rule="evenodd" d="M32.3391 6.48067C31.2971 4.42749 28.7112 4.42453 27.6657 6.48193L5.36094 50.344C5.34565 50.3777 5.32957 50.4112 5.3127 50.4443C4.13784 52.7528 5.84785 55.059 7.64761 55.059H52.3495C54.1506 55.059 55.8614 52.753 54.6913 50.4417C54.6911 50.4412 54.6915 50.4421 54.6913 50.4417L32.3391 6.48067ZM0.835175 48.3163C0.852985 48.2761 0.871928 48.2363 0.891989 48.1968L23.2468 4.23626C23.2469 4.23607 23.2467 4.23645 23.2468 4.23626C26.128 -1.43228 33.8784 -1.43618 36.7584 4.2358M36.7584 4.2358L59.1122 48.2C61.6915 53.2903 58.4128 60.0158 52.3495 60.0158H7.64761C1.63567 60.0158 -1.64546 53.3948 0.835175 48.3163" fill="#FFD300"/>
</svg>
