<svg width="12" height="12" viewBox="0 0 12 12" fill="none" xmlns="http://www.w3.org/2000/svg">
<g clip-path="url(#clip0_2095_81756)">
<path fill-rule="evenodd" clip-rule="evenodd" d="M5.99958 3.85217C6.27334 3.85217 6.49526 4.0741 6.49526 4.34785V7.10161C6.49526 7.37537 6.27334 7.59729 5.99958 7.59729C5.72583 7.59729 5.50391 7.37537 5.50391 7.10161V4.34785C5.50391 4.0741 5.72583 3.85217 5.99958 3.85217ZM5.99958 8.53357C6.27334 8.53357 6.49526 8.7555 6.49526 9.02925V9.30463C6.49526 9.57838 6.27334 9.8003 5.99958 9.8003C5.72583 9.8003 5.50391 9.57838 5.50391 9.30463V9.02925C5.50391 8.7555 5.72583 8.53357 5.99958 8.53357Z" fill="#FFD400"/>
<path fill-rule="evenodd" clip-rule="evenodd" d="M6.46761 1.29617C6.25921 0.885534 5.74204 0.884943 5.53292 1.29642L1.07198 10.0688C1.06892 10.0756 1.06571 10.0823 1.06233 10.0889C0.82736 10.5506 1.16936 11.0118 1.52932 11.0118H10.4697C10.8299 11.0118 11.1721 10.5506 10.9381 10.0884C10.938 10.0883 10.9381 10.0885 10.9381 10.0884L6.46761 1.29617ZM0.166827 9.66329C0.17039 9.65525 0.174178 9.64729 0.17819 9.6394L4.64915 0.847288C4.64917 0.847251 4.64913 0.847326 4.64915 0.847288C5.22539 -0.286419 6.77547 -0.287199 7.35146 0.847197M7.35146 0.847197L11.8222 9.64004C12.3381 10.6581 11.6824 12.0032 10.4697 12.0032H1.52932C0.326927 12.0032 -0.3293 10.679 0.166827 9.66329" fill="#FFD400"/>
</g>
<defs>
<clipPath id="clip0_2095_81756">
<rect width="12" height="12" fill="white"/>
</clipPath>
</defs>
</svg>
