<svg width="30" height="30" viewBox="0 0 30 30" fill="none" xmlns="http://www.w3.org/2000/svg">
<g clip-path="url(#clip0_1694_63844)">
<path fill-rule="evenodd" clip-rule="evenodd" d="M14.9999 9.63037C15.6843 9.63037 16.2391 10.1852 16.2391 10.8696V17.754C16.2391 18.4384 15.6843 18.9932 14.9999 18.9932C14.3155 18.9932 13.7607 18.4384 13.7607 17.754V10.8696C13.7607 10.1852 14.3155 9.63037 14.9999 9.63037ZM14.9999 21.3339C15.6843 21.3339 16.2391 21.8887 16.2391 22.5731V23.2615C16.2391 23.9459 15.6843 24.5007 14.9999 24.5007C14.3155 24.5007 13.7607 23.9459 13.7607 23.2615V22.5731C13.7607 21.8887 14.3155 21.3339 14.9999 21.3339Z" fill="#181818"/>
<path fill-rule="evenodd" clip-rule="evenodd" d="M16.17 3.24037C15.649 2.21377 14.3561 2.2123 13.8333 3.24099L2.68093 25.172C2.67328 25.1889 2.66524 25.2056 2.65681 25.2222C2.06938 26.3764 2.92438 27.5296 3.82426 27.5296H26.1752C27.0758 27.5296 27.9312 26.3766 27.3461 25.2209C27.346 25.2206 27.3462 25.2211 27.3461 25.2209L16.17 3.24037ZM0.418045 24.1582C0.42695 24.1381 0.436422 24.1182 0.446452 24.0984L11.6238 2.11816C11.6239 2.11807 11.6238 2.11825 11.6238 2.11816C13.0645 -0.716108 16.9396 -0.718058 18.3796 2.11793M18.3796 2.11793L29.5566 24.1C30.8462 26.6452 29.2069 30.0079 26.1752 30.0079H3.82426C0.818293 30.0079 -0.822273 26.6975 0.418045 24.1582" fill="#181818"/>
</g>
<defs>
<clipPath id="clip0_1694_63844">
<rect width="30" height="30" fill="white"/>
</clipPath>
</defs>
</svg>
