<svg width="25" height="25" viewBox="0 0 25 25" fill="none" xmlns="http://www.w3.org/2000/svg">
<path d="M12.4997 2.08398C6.77051 2.08398 2.08301 6.77148 2.08301 12.5007C2.08301 18.2298 6.77051 22.9173 12.4997 22.9173C18.2288 22.9173 22.9163 18.2298 22.9163 12.5007C22.9163 6.77148 18.2288 2.08398 12.4997 2.08398ZM12.4997 20.834C7.90592 20.834 4.16634 17.0944 4.16634 12.5007C4.16634 7.9069 7.90592 4.16732 12.4997 4.16732C17.0934 4.16732 20.833 7.9069 20.833 12.5007C20.833 17.0944 17.0934 20.834 12.4997 20.834ZM13.0205 7.29232H11.458V13.5423L16.8747 16.8757L17.708 15.5215L13.0205 12.709V7.29232Z" fill="#181818"/>
</svg>
